<?xml version="1.0" encoding="UTF-8" standalone="no"?>
<!DOCTYPE svg PUBLIC "-//W3C//DTD SVG 1.1//EN" "http://www.w3.org/Graphics/SVG/1.1/DTD/svg11.dtd">
<svg width="100%" height="100%" viewBox="0 0 626 628" version="1.1" xmlns="http://www.w3.org/2000/svg" xmlns:xlink="http://www.w3.org/1999/xlink" xml:space="preserve" xmlns:affinity="https://www.affinity.studio/" style="fill-rule:evenodd;clip-rule:evenodd;stroke-linejoin:round;stroke-miterlimit:2;">
    <g transform="matrix(1,0,0,1,-4563.090104,-811.899345)">
        <g transform="matrix(0.164763,0,0,0.164763,3134.042702,495.596159)">
            <path d="M12218.324,3112.933C12150.647,3166.167 12065.84,3071.067 12125.477,3008.818C12159.476,2973.331 12181.508,2973.726 12215.8,3010.436C12251.21,3048.341 12252.145,3086.329 12218.324,3112.933ZM12133.831,4819.327C12126.558,4831.093 12094.265,4830.223 12086.746,4818.057C12079.321,4806.043 12098.898,4780.586 12115.563,4780.586C12129.441,4780.586 12141.703,4806.59 12133.831,4819.327ZM12338.357,3582.017C12321.463,3602.373 12284.808,3600.304 12262.223,3577.719C12239.83,3555.326 12238.119,3536.965 12256.966,3521.323C12290.615,3493.397 12365.537,3549.267 12338.357,3582.017ZM10766.218,5713.835C9193.352,5897.823 8110.677,4106.81 8985.398,2767.914C9121.865,2559.029 9445.19,2239.063 9562.136,2197.164C9570.355,2194.219 9588.617,2183.82 9602.719,2174.054C9713.951,2097.019 9977.492,1997.073 10187.985,1952.096C10528.397,1879.359 10978.861,1932.015 11305.61,2082.74C11384.314,2119.044 11400.324,2133.99 11400.324,2171.157C11400.324,2222.782 11485.186,2308.55 11536.265,2308.55C11544.498,2308.55 11572.592,2327.518 11598.696,2350.702C11654.076,2399.887 11692.733,2410.178 11758.652,2393.283C11812.206,2379.558 11832.502,2389.314 11895.529,2459.077C11926.323,2493.162 11928.579,2499.298 11919.33,2523.801C11904.483,2563.135 11927.631,2601.336 11984.029,2630.577C12059.422,2669.667 12094.622,2725.098 12072.101,2769.271C12039.631,2832.959 12022.813,2828.704 11967.729,2742.864C11935.943,2693.329 11901.41,2681.533 11878.78,2712.481C11862.675,2734.505 11812.232,2722.347 11822.221,2698.848C11854.322,2623.332 11760.64,2592.185 11721.481,2665.354C11711.705,2683.623 11711.483,2692.462 11720.44,2706.804C11738.124,2735.121 11735.081,2742.291 11684.468,2791.591C11623.722,2850.759 11615.634,2927.318 11664.241,2983.057C11686.585,3008.681 11689.699,3017.867 11681.891,3035.133C11647.288,3111.65 11798.085,3206.536 11883.52,3162.004C11940.265,3132.427 11961.743,3135.842 11991.806,3179.224L12017.579,3216.414L11991.916,3260.205C11942.983,3343.704 11971.361,3416.096 12070.427,3460.484C12132.303,3488.209 12133.866,3504.097 12081.265,3570.642C11978.775,3700.302 12149.891,3885.053 12294.162,3800.504L12334.211,3777.034L12368.284,3800.187C12439.495,3848.576 12455.838,3903.477 12420.479,3975.516C12395.497,4026.411 12377.799,4031.548 12324.622,4003.338C12261.263,3969.726 12206.222,3998.077 12167.219,4084.415C12129.057,4168.89 12136.41,4231.323 12186.579,4248.812C12206.156,4255.636 12214.866,4264.945 12214.866,4279.044C12214.866,4338.925 12317.616,4375.842 12369.874,4334.736C12404.527,4307.478 12422.951,4314.319 12448.27,4363.843C12477.127,4420.287 12476.23,4431.878 12438.8,4486.292C12421.313,4511.713 12404.188,4550.133 12400.744,4571.669C12393.179,4618.976 12370.837,4631.612 12348.086,4601.451C12321.129,4565.713 12258.933,4563.294 12237.258,4597.141C12195.975,4661.608 12161.649,4663.967 12166.121,4602.03C12174.198,4490.157 12038.138,4425.192 12004.858,4525.031C12001.685,4534.552 11996.408,4534.667 11979.44,4525.586C11926.725,4497.374 11870.647,4541.434 11835.065,4639.022C11823.654,4670.319 11810.673,4698.177 11806.221,4700.93C11792.438,4709.448 11797.262,4739.05 11816.397,4763.377C11830.354,4781.121 11833.434,4795.825 11829.434,4825.646C11816.226,4924.118 11892.406,5000.787 11973.008,4970.143C12004.635,4958.118 12060.27,5005.891 12069.247,5052.782C12081.055,5114.458 11903.343,5270.614 11849.344,5246.011C11720.64,5187.369 11409.797,5380.296 11409.797,5518.819C11409.797,5569.866 11272.436,5640.339 11199.947,5626.482C11186.906,5623.989 11140.347,5632.756 11096.485,5645.966C10975.686,5682.343 10896.733,5698.568 10766.218,5713.835ZM10401.093,4822.016C10684.557,4877.836 11042.241,4734.268 11225.133,4491.263C11301.601,4389.66 11314.548,4382.757 11364.195,4417.119C11393.532,4437.424 11414.575,4444.352 11446.922,4444.352C11497.437,4444.352 11497.108,4442.652 11470.335,4565.271C11454.273,4638.834 11454.273,4638.834 11423.387,4633.039C11357.146,4620.612 11333.239,4647.683 11361.605,4702.995C11392.977,4764.167 11421.786,4785.026 11442.814,4761.79C11452.316,4751.291 11467.186,4742.701 11475.86,4742.701C11497.392,4742.701 11564.846,4683.551 11590.323,4642.33C11609.143,4611.879 11610.553,4600.876 11604.77,4529.611C11597.703,4442.51 11593.75,4448.828 11664.221,4434.601C11752.851,4416.708 11823.678,4297.993 11782.876,4235.721C11759.512,4200.063 11771.559,4183.888 11821.478,4183.888C11971.879,4183.888 12035.471,3939.266 11902.681,3871.522C11859.011,3849.243 11859.769,3851.802 11878.529,3789.963C11909.494,3687.887 11893.634,3641.491 11790.591,3532.73C11716.362,3454.381 11686.573,3444.393 11668.661,3491.848C11660.816,3512.632 11650.148,3521.155 11626.331,3525.67C11588.265,3532.885 11570.352,3545.282 11547.699,3580.087C11524.386,3615.906 11516.717,3612.898 11457.154,3544.569C11428.503,3511.701 11399.733,3484.405 11393.222,3483.907C11368.993,3482.06 11382.684,3450.837 11424.004,3413.708C11467.3,3374.803 11481.158,3337.611 11450.394,3342.886C11427.019,3346.894 11424.095,3316.311 11446.055,3297.508C11526,3229.057 11326.678,3084.332 11231.979,3142.07C11188.99,3168.28 11182.572,3166.7 11134.946,3118.172C10890.391,2868.989 10446.739,2807.752 10110.079,2976.71C9334.786,3365.803 9405.976,4512.829 10221.918,4778.69C10271.702,4794.911 10307.908,4803.666 10401.093,4822.016ZM11659.966,4317.819C11651.148,4332.087 11604.774,4326.163 11580.749,4307.699C11556.204,4288.835 11565.303,4259.659 11595.731,4259.659C11613.391,4259.659 11666.303,4307.566 11659.966,4317.819ZM11357.487,2929.348C11387.401,2961.066 11393.604,2963.67 11425.148,2957.752C11510.003,2941.833 11527.574,2845.345 11453.809,2800.366C11360.043,2743.191 11281.328,2848.596 11357.487,2929.348Z"/>
        </g>
    </g>
</svg>
